<svg width="492" height="610" viewBox="0 0 492 610" fill="none" xmlns="http://www.w3.org/2000/svg" xmlns:xlink="http://www.w3.org/1999/xlink">
<mask id="mask_0_2_94" style="mask-type:alpha" maskUnits="userSpaceOnUse" x="0" y="0" width="246" height="305">
<path d="M492,246C492,110.138 381.862,0 246,0C110.138,0 0,110.138 0,246L0,590.8C0,597.52 0,600.88 1.308,603.448C2.458,605.706 4.294,607.542 6.552,608.692C9.119,610 12.479,610 19.2,610L472.8,610C479.52,610 482.88,610 485.448,608.692C487.706,607.542 489.542,605.706 490.692,603.448C492,600.88 492,597.52 492,590.8L492,246Z" clip-rule="evenodd" fill-rule="evenodd" fill="#F7CC47"/>
</mask>
<path d="M492,246C492,110.138 381.862,0 246,0C110.138,0 0,110.138 0,246L0,590.8C0,597.52 0,600.88 1.308,603.448C2.458,605.706 4.294,607.542 6.552,608.692C9.119,610 12.479,610 19.2,610L472.8,610C479.52,610 482.88,610 485.448,608.692C487.706,607.542 489.542,605.706 490.692,603.448C492,600.88 492,597.52 492,590.8L492,246Z" clip-rule="evenodd" fill-rule="evenodd" fill="#F7CC47"/>
<rect  x="0" y="72" width="492" height="538" fill="url(#pattern_0_2_97)"/>
</svg>
