<svg width="524" height="240" viewBox="0 0 524 240" fill="none" xmlns="http://www.w3.org/2000/svg" xmlns:xlink="http://www.w3.org/1999/xlink">
<path d="M503.043,2.075L503.361,1.95C506.041,0.855 506.987,4.754 505.139,6.179C504.429,6.729 503.739,6.878 503.121,6.754C502.801,5.836 502.447,4.93 502.061,4.036L503.727,5.324L504.867,2.315L503.043,2.075ZM508.141,25.235L507.625,23.348L504.695,12.654C504.319,10.65 503.793,8.677 503.121,6.754C501.187,6.363 499.961,3.294 501.059,1.403C502.037,-0.046 503.885,-0.627 505.517,0C507.535,0.783 508.975,2.59 509.289,4.731C510.505,8.741 511.645,12.779 512.787,16.818C513.393,18.958 513.997,21.098 514.613,23.234C514.851,24.051 515.089,24.868 515.327,25.686C515.779,27.231 516.231,28.778 516.673,30.327C518.109,31.24 519.535,32.174 520.949,33.13C522.223,33.921 522.913,35.371 522.719,36.843C522.523,38.315 521.477,39.541 520.039,39.981C508.543,44.689 496.739,48.629 484.705,51.773C483.237,52.123 481.727,51.372 481.139,49.997C480.551,48.623 481.059,47.031 482.339,46.236C491.385,42.109 500.643,38.456 510.075,35.293C510.349,35.456 510.623,35.619 510.897,35.782C510.813,35.556 510.739,35.326 510.675,35.093C510.475,35.159 510.275,35.226 510.075,35.293C507.607,33.834 505.113,32.42 502.583,31.074C464.189,8.388 417.697,3.301 375.199,17.137C356.613,23.942 340.441,35.952 328.669,51.695C322.081,60.844 317.365,71.011 312.647,81.182C308.039,91.112 303.431,101.046 297.079,110.039C274.331,141.631 238.883,162.003 199.817,165.936C178.104,166.986 156.372,164.284 135.602,157.951C114.738,151.018 92.35,149.852 70.863,154.581C34.787,165.755 9.504,197.826 7.399,235.086C7.333,236.85 5.865,238.246 4.076,238.246C2.288,238.246 0.82,236.85 0.754,235.086C0.715,230.368 1.122,225.656 1.971,221.012C9.512,183.543 38.847,154.054 76.667,145.922C99.667,143.329 122.964,145.807 144.876,153.178C156.238,156.316 167.874,158.392 179.63,159.377C189.557,159.962 199.519,159.321 209.285,157.468C228.783,153.729 247.167,145.672 263.053,133.905C279.171,121.826 292.085,106.073 300.685,87.993C302.387,84.505 304.009,80.976 305.631,77.446C308.953,70.213 312.277,62.977 316.299,56.086C321.503,47.134 328.073,39.027 335.781,32.052C351.083,18.57 369.629,9.182 389.651,4.783C430.505,-2.127 472.357,5.199 508.141,25.235ZM517.509,32.913C517.651,33.289 517.761,33.673 517.843,34.062L518.013,32.759C517.845,32.81 517.677,32.861 517.509,32.913ZM517.185,39.072C517.111,39.218 517.033,39.363 516.949,39.506C517.005,39.54 517.059,39.575 517.115,39.61L517.185,39.072Z" clip-rule="evenodd" fill-rule="evenodd" transform="rotate(-74 261.751 118.997)" fill="#E7C4B2"/>
</svg>
