<svg width="284" height="146" viewBox="0 0 284 146" fill="none" xmlns="http://www.w3.org/2000/svg" xmlns:xlink="http://www.w3.org/1999/xlink">
<path d="M11.205,112.231C5.807,122.618 3.868,134.444 5.666,146L0.819,146C-0.273,140.077 -0.273,134.005 0.819,128.082C2.464,115.708 8.331,104.273 17.436,95.691C24.738,89.087 33.607,84.521 43.148,82.383C43.196,84.113 43.327,85.841 43.541,87.561C41.037,88.011 38.559,88.654 36.13,89.488C25.476,94.043 16.688,102.061 11.205,112.231ZM48.965,86.889C47.149,87.014 45.338,87.238 43.541,87.561C43.969,91.007 44.73,94.422 45.824,97.758C48.468,108.913 55.437,118.575 65.21,124.636C71.352,127.5 78.455,127.5 84.596,124.636C89.16,122.844 92.871,119.396 94.982,114.988C96.748,105.754 92.965,96.34 85.289,90.867C75.637,82.927 63.061,79.422 50.67,81.218C50.375,81.244 50.08,81.272 49.786,81.302C50.034,80.118 50.329,78.94 50.67,77.773C51.988,67.267 56.046,57.288 62.441,48.828C79.182,31.28 101.381,19.868 125.447,16.437C139.437,13.951 153.702,14.738 167.154,18.601C163.837,22.049 160.98,25.952 158.68,30.22C153.572,40.902 153.572,53.307 158.68,63.989C162.975,74.357 172.453,81.695 183.606,83.286C194.266,84.508 204.786,80.058 211.3,71.57C218.614,60.985 218.614,47.008 211.3,36.423C202.748,26.245 191.808,18.64 179.683,14.103C188.257,9.238 197.911,6.478 207.838,6.099C230.288,3.613 252.786,10.331 270.152,24.707C273.222,26.662 276.07,28.935 278.648,31.485L258.382,35.044L281.922,35.044L284,35.044C283.332,33.989 282.64,32.954 281.922,31.94L281.922,30.909L281.266,31.025C268.586,13.626 248.896,2.463 227.226,0.586C213.132,-1.079 198.845,0.817 185.683,6.099C181.645,7.725 177.851,9.824 174.372,12.334C165.366,9.697 155.83,8.705 146.218,9.545C117.931,8.577 90.213,17.611 67.98,35.044C58.382,42.797 50.786,52.721 45.824,63.989C43.867,69.96 42.975,76.183 43.148,82.383C45.329,81.894 47.545,81.533 49.786,81.302C49.399,83.15 49.125,85.016 48.965,86.889ZM281.266,31.025L278.648,31.485C279.794,32.618 280.888,33.805 281.922,35.044L281.922,31.94C281.706,31.633 281.488,31.328 281.266,31.025ZM171.281,19.89C169.915,19.428 168.539,18.998 167.154,18.601C169.366,16.301 171.782,14.204 174.372,12.334C176.165,12.859 177.936,13.449 179.683,14.103C177.698,15.229 175.772,16.467 173.913,17.815C173.005,18.474 172.127,19.167 171.281,19.89ZM171.281,19.89C177.474,21.987 183.465,24.747 189.145,28.153C198.781,34.287 205.136,44.409 206.454,55.719C207.136,65.543 200.762,74.481 191.222,77.083C182.406,79.931 172.73,77.523 166.297,70.881C159.31,63.772 155.992,53.863 157.296,44.004C159.076,34.586 164.028,26.092 171.281,19.89ZM48.965,86.889C55.599,86.433 62.303,87.299 68.672,89.488C77.42,90.553 85.005,96.02 88.751,103.961C89.553,108.173 88.607,112.529 86.128,116.035C83.649,119.541 79.85,121.898 75.596,122.568C69.825,122.271 64.383,119.808 60.363,115.677C56.385,112.449 53.09,108.466 50.67,103.961C49.044,98.398 48.475,92.61 48.965,86.889ZM282.278,19.32C282.116,17.056 282.116,14.784 282.278,12.52L282.278,13.88L282.278,19.32ZM282.278,19.32L282.278,20C282.166,22.038 282.166,24.082 282.278,26.12C282.456,28.156 282.456,30.204 282.278,32.24C281.358,27.982 281.358,23.578 282.278,19.32Z" clip-rule="evenodd" fill-rule="evenodd" fill="#8082A5"/>
</svg>
