<svg width="32" height="28" viewBox="0 0 32 28" fill="none" xmlns="http://www.w3.org/2000/svg" xmlns:xlink="http://www.w3.org/1999/xlink">
<path d="M0,2C0,0.895 0.895,0 2,0L30,0C31.105,0 32,0.895 32,2C32,3.105 31.105,4 30,4L2,4C0.895,4 0,3.105 0,2ZM0,14C0,12.895 0.895,12 2,12L30,12C31.105,12 32,12.895 32,14C32,15.105 31.105,16 30,16L2,16C0.895,16 0,15.105 0,14ZM2,24C0.895,24 0,24.895 0,26C0,27.105 0.895,28 2,28L30,28C31.105,28 32,27.105 32,26C32,24.895 31.105,24 30,24L2,24Z" clip-rule="evenodd" fill-rule="evenodd" fill="#FFFFFF"/>
</svg>
