<svg width="64" height="52" viewBox="0 0 64 52" fill="none" xmlns="http://www.w3.org/2000/svg" xmlns:xlink="http://www.w3.org/1999/xlink">
<path d="M26,0C22.686,0 20,2.686 20,6L20,8L6,8C2.686,8 0,10.686 0,14L0,19.536L30.456,27.656C31.468,27.925 32.532,27.925 33.544,27.656L64,19.536L64,14C64,10.686 61.314,8 58,8L44,8L44,6C44,2.686 41.314,0 38,0L26,0ZM26,4L38,4C39.105,4 40,4.895 40,6L40,8L24,8L24,6C24,4.895 24.895,4 26,4ZM6,52C2.686,52 0,49.314 0,46L0,23.4L31.484,31.788C31.822,31.878 32.178,31.878 32.516,31.788L64,23.4L64,46C64,49.314 61.314,52 58,52L6,52Z" clip-rule="evenodd" fill-rule="evenodd" fill="#FFFFFF"/>
</svg>
