<svg width="64" height="64" viewBox="0 0 64 64" fill="none" xmlns="http://www.w3.org/2000/svg" xmlns:xlink="http://www.w3.org/1999/xlink">
<path d="M32,0C32.757,0 33.449,0.428 33.788,1.105L35.236,4.003L54,4.003C57.314,4.003 60,6.691 60,10.007L60,40.028L4,40.028L4,10.007C4,6.691 6.686,4.003 10,4.003L28.76,4.003L30.212,1.105C30.551,0.428 31.243,0 32,0ZM2,44.031C0.895,44.031 0,44.927 0,46.032C0,47.137 0.895,48.033 2,48.033L13.44,48.033L10.06,61.559C9.821,62.62 10.473,63.677 11.527,63.94C12.581,64.203 13.653,63.576 13.94,62.527L15.56,56.039L48.44,56.039L50.06,62.527C50.347,63.576 51.419,64.203 52.473,63.94C53.527,63.677 54.179,62.62 53.94,61.559L50.56,48.033L62,48.033C63.105,48.033 64,47.137 64,46.032C64,44.927 63.105,44.031 62,44.031L2,44.031ZM16.56,52.036L17.56,48.033L46.44,48.033L47.44,52.036L16.56,52.036Z" clip-rule="evenodd" fill-rule="evenodd" fill="#FFFFFF"/>
</svg>
