<svg width="64" height="64" viewBox="0 0 64 64" fill="none" xmlns="http://www.w3.org/2000/svg" xmlns:xlink="http://www.w3.org/1999/xlink">
<path d="M2,0C0.895,0 0,0.895 0,2L0,51.98L0,52L0,52.176C0.043,55.298 1.304,58.28 3.516,60.484C5.763,62.738 8.817,64.004 12,64L62,64C63.105,64 64,63.105 64,62L64,42C64,40.895 63.105,40 62,40L41.044,40L57.556,23.56C57.932,23.185 58.144,22.675 58.144,22.144C58.144,21.613 57.932,21.103 57.556,20.728L43.416,6.584C42.635,5.803 41.369,5.803 40.588,6.584L24,23.108L24,2C24,0.895 23.105,0 22,0L2,0ZM53.312,22.136L24,51.336L24,28.752L41.996,10.824L53.312,22.136ZM18,52C18,48.686 15.314,46 12,46C8.686,46 6,48.686 6,52C6,55.314 8.686,58 12,58C15.314,58 18,55.314 18,52ZM37.032,44L60,44L60,60L20.972,60L37.032,44Z" clip-rule="evenodd" fill-rule="evenodd" fill="#FFFFFF"/>
</svg>
