<svg width="1200" height="928" viewBox="0 0 1200 928" fill="none" xmlns="http://www.w3.org/2000/svg" xmlns:xlink="http://www.w3.org/1999/xlink">
<mask id="mask_0_2_238" style="mask-type:alpha" maskUnits="userSpaceOnUse" x="82" y="102" width="246" height="305">
<path d="M574,348C574,212.138 463.862,102 328,102C192.138,102 82,212.138 82,348L82,692.8C82,699.52 82,702.88 83.308,705.448C84.458,707.706 86.294,709.542 88.552,710.692C91.119,712 94.479,712 101.2,712L554.8,712C561.52,712 564.88,712 567.448,710.692C569.706,709.542 571.542,707.706 572.692,705.448C574,702.88 574,699.52 574,692.8L574,348Z" clip-rule="evenodd" fill-rule="evenodd" fill="#B550F8"/>
</mask>
<path d="M549.55,33.295C558.918,18.043 581.082,18.043 590.45,33.295L1117.544,891.438C1127.366,907.43 1115.86,928 1097.092,928L42.907,928C24.14,928 12.635,907.43 22.457,891.438L549.55,33.295Z" fill="#F9E5DA"/>
<path d="M199.93,866.476C188.093,876.015 173.596,882.2 157.994,883.996L157.994,883.988C155.276,884.245 155.395,880.202 157.994,879.868C160.807,879.501 163.593,878.959 166.337,878.244C177.737,875.105 188.132,869.528 196.871,862.057C197.786,863.617 198.81,865.092 199.93,866.476ZM264.85,864.049C255.639,873.732 242.892,879.479 229.353,879.954C217.843,880.265 206.984,875.191 199.93,866.476C201.51,865.202 203.044,863.868 204.526,862.477C204.971,863.094 205.436,863.699 205.919,864.292C214.441,872.843 227.063,876.028 238.699,872.564C247.367,869.949 255.112,865.135 261.207,858.686C262.279,860.566 263.497,862.359 264.85,864.049ZM328.723,861.451C327.397,862.9 325.998,864.291 324.529,865.619C313.028,876.71 296.346,880.793 280.925,876.29C274.525,873.527 269.043,869.285 264.85,864.049C265.604,863.257 266.334,862.438 267.038,861.594C267.728,860.834 268.401,860.062 269.058,859.277C273.711,865.527 280.584,870.059 288.575,871.769C302.386,872.799 315.817,867.017 324.446,856.328C324.486,856.282 324.524,856.235 324.563,856.189C325.809,858.058 327.201,859.817 328.723,861.451ZM385.712,862.491C382.926,864.938 379.908,867.167 376.676,869.145C367.152,874.291 355.937,875.471 345.528,872.42C339.055,870.15 333.301,866.364 328.723,861.451C330.241,859.793 331.662,858.059 332.984,856.258C333.496,856.919 334.027,857.57 334.577,858.21C340.694,864.533 349.268,867.961 358.12,867.621C367.042,866.978 375.476,863.402 382.082,857.48C383.178,859.226 384.39,860.9 385.712,862.491ZM443.26,863.781C437.462,868.884 430.582,872.716 423.068,874.966C412.692,877.89 401.528,875.854 392.896,869.463C390.24,867.386 387.836,865.046 385.712,862.491C387.306,861.092 388.822,859.621 390.26,858.086C395.052,864.425 402.232,868.644 410.23,869.746C421.16,869.321 431.308,865.263 439.288,858.615C439.538,859.049 439.794,859.48 440.056,859.907C440.976,861.328 442.052,862.626 443.26,863.781ZM555.46,857.259L555.046,857.319C526.906,861.382 498.75,865.317 470.574,869.124C464.896,870.2 459.066,870.249 453.368,869.27C449.532,868.36 446.048,866.451 443.26,863.781C444.872,862.363 446.4,860.846 447.834,859.237C448.644,859.967 449.528,860.627 450.476,861.205C454.586,863.713 459.552,864.468 464.238,863.298C472.412,862.634 480.586,861.36 488.734,860.089C492.382,859.52 496.026,858.952 499.662,858.44C521.99,855.326 544.318,852.243 566.652,849.191C566.694,849.222 566.736,849.253 566.778,849.284C566.854,849.237 566.928,849.19 567.002,849.144C566.884,849.16 566.768,849.175 566.652,849.191C564.838,847.871 563.02,846.556 561.202,845.241C557.618,842.647 554.032,840.053 550.478,837.414C548.864,836.432 548.318,834.371 549.238,832.735C550.212,831.115 552.324,830.568 553.978,831.507C557.538,834.151 561.062,836.841 564.588,839.53C567.622,841.843 570.654,844.156 573.708,846.441C573.98,846.563 574.234,846.733 574.456,846.952C574.51,847.004 574.562,847.058 574.61,847.114C575.238,847.583 575.87,848.051 576.5,848.517C578.424,849.941 578.826,853.923 575.726,854.366L568.584,855.385C565.566,857.739 562.446,859.968 559.232,862.065L551.2,867.938C548.764,869.943 546.18,871.773 543.472,873.413C542.104,874.143 540.394,873.791 539.442,872.583C538.49,871.375 538.576,869.669 539.646,868.559C542.146,866.456 544.796,864.531 547.576,862.799L555.322,857.367C555.368,857.331 555.414,857.295 555.46,857.259ZM571.69,852.891C572.202,853.272 572.716,853.654 573.228,854.036L573.592,851.286C572.962,851.827 572.328,852.362 571.69,852.891ZM573.708,850.415L573.624,851.049C572.974,851.332 572.318,851.594 571.664,851.855C571.366,851.974 571.07,852.093 570.774,852.213C569.814,851.505 568.854,850.8 567.892,850.097C568.276,849.693 568.648,849.281 569.02,848.868C570.18,848.71 571.338,848.551 572.498,848.393L573.708,850.415ZM443.938,854.18C442.488,855.762 440.934,857.244 439.288,858.615C436.72,854.126 434.914,849.248 433.946,844.175C431.058,831.688 430.898,818.737 433.472,806.182C434.4,800.286 436.21,794.557 438.844,789.185C441.166,784.284 446.594,781.594 451.964,782.682C456.602,784.242 460.378,787.626 462.396,792.031C464.672,796.868 465.89,802.124 465.97,807.457C466.91,825.023 461.368,842.329 450.368,856.171C449.56,857.227 448.714,858.249 447.834,859.237C446.232,857.796 444.914,856.082 443.938,854.18ZM443.938,854.18C448.444,849.26 451.94,843.363 454.062,836.765C457.888,827.477 459.544,817.458 458.912,807.451C458.852,803.018 457.77,798.656 455.748,794.697C454.646,791.464 451.564,789.297 448.108,789.323C444.232,792.173 441.776,796.523 441.36,801.274C439.836,806.445 438.852,811.757 438.424,817.125C437.432,828.236 438.794,839.43 442.426,849.993C442.752,851.459 443.262,852.864 443.938,854.18ZM386.622,852.296C385.428,853.841 384.164,855.341 382.83,856.792C382.584,857.025 382.334,857.254 382.082,857.48C379.456,853.293 377.5,848.694 376.32,843.84C373.694,830.879 374.052,817.502 377.368,804.696C378.12,801.128 378.936,797.576 379.822,794.04C380.31,791.581 381.214,789.219 382.492,787.054C385.554,782.55 391.406,780.795 396.49,782.859C406.3,789.296 410.792,801.238 407.614,812.433C408.102,829.528 401.712,845.855 390.26,858.086C389.82,857.506 389.402,856.907 389.004,856.291C388.144,854.994 387.348,853.66 386.622,852.296ZM386.622,852.296C397.77,837.882 402.794,819.647 400.446,801.507C400.764,797.019 398.786,792.672 395.176,789.924C393.622,788.939 391.696,788.713 389.952,789.31C388.414,790.318 387.358,791.899 387.024,793.691C383.274,804.923 381.236,816.643 380.98,828.466C380.77,836.78 382.724,844.981 386.622,852.296ZM328.959,850.206C327.635,852.271 326.17,854.269 324.563,856.189C323.852,855.122 323.189,854.018 322.577,852.882C312.708,830.698 315.356,805.031 329.553,785.265C330.202,784.214 331.36,783.573 332.607,783.573C333.855,783.573 335.012,784.214 335.662,785.265C344.07,798.657 347.065,814.68 344.051,830.15C342.443,839.634 338.632,848.56 332.984,856.258C331.483,854.322 330.14,852.299 328.959,850.206ZM332.475,794.169C341.096,812.223 339.735,833.395 328.959,850.206C320.811,835.778 320.304,818.056 328.13,802.984C329.438,799.979 330.888,797.038 332.475,794.169ZM332.475,794.169C331.603,792.343 330.629,790.549 329.553,788.795L335.662,788.795C334.545,790.555 333.482,792.348 332.475,794.169ZM265.575,853.387C264.237,855.255 262.776,857.025 261.207,858.686C258.671,854.239 256.956,849.304 256.224,844.094C254.547,826.402 257.966,808.601 266.09,792.742C266.625,790.972 268.479,789.933 270.293,790.386C273.012,791.348 275.519,792.814 277.679,794.705C285.289,803.334 288.057,815.131 285.065,826.183C282.557,838.357 277.053,849.719 269.058,859.277C267.699,857.451 266.529,855.478 265.575,853.387ZM270.738,798.367C277.241,803.178 280.552,811.246 279.111,819.29C278.15,830.311 274.26,840.888 267.832,849.951C267.124,851.13 266.371,852.276 265.575,853.387C264.572,851.185 263.809,848.852 263.318,846.418C260.673,830.002 263.283,813.21 270.738,798.367ZM270.738,798.367C270.023,797.838 269.269,797.349 268.479,796.903L272.336,795.349C271.781,796.345 271.248,797.352 270.738,798.367ZM201.575,857.692C200.067,859.211 198.498,860.667 196.871,862.057C196.851,862.023 196.83,861.988 196.81,861.953C191.468,851.041 189.924,838.695 192.415,826.829C193.411,820.542 195.039,814.37 197.275,808.402C199.051,802.155 202.272,796.4 206.685,791.589C211.062,787.066 218.204,786.563 223.189,790.425C227.448,794.642 229.768,800.398 229.608,806.35C229.74,819.143 226.366,831.733 219.842,842.789C215.752,850.192 210.563,856.81 204.526,862.477C203.422,860.947 202.437,859.347 201.575,857.692ZM201.575,857.692C207.859,851.366 213.073,843.961 216.916,835.734C221.919,825.962 224.138,815.032 223.335,804.112C223.512,799.489 220.607,795.294 216.177,793.776C210.795,795.014 206.597,799.166 205.354,804.478C200.664,814.494 197.959,825.302 197.384,836.321C196.688,843.746 198.171,851.154 201.575,857.692Z" clip-rule="evenodd" fill-rule="evenodd" transform="rotate(-180 367 833)" fill="#E7C4B2"/>
<path d="M877.257,721.755C870.871,734.134 868.576,748.228 870.703,762L864.969,762C863.677,754.941 863.677,747.705 864.969,740.646C866.916,725.899 873.856,712.27 884.629,702.043C893.267,694.173 903.761,688.731 915.048,686.183C915.105,688.244 915.26,690.304 915.513,692.354C912.551,692.89 909.62,693.656 906.746,694.651C894.14,700.079 883.744,709.635 877.257,721.755ZM921.93,691.553C919.782,691.702 917.639,691.969 915.513,692.354C916.02,696.461 916.92,700.531 918.214,704.507C921.343,717.801 929.588,729.315 941.15,736.539C948.416,739.952 956.82,739.952 964.086,736.539C969.485,734.403 973.876,730.294 976.373,725.04C978.463,714.036 973.987,702.817 964.905,696.293C953.486,686.83 938.607,682.653 923.948,684.795C923.599,684.825 923.25,684.859 922.902,684.895C923.195,683.483 923.544,682.08 923.948,680.688C925.507,668.168 930.308,656.275 937.873,646.192C957.68,625.28 983.943,611.679 1012.416,607.589C1028.968,604.626 1045.845,605.565 1061.76,610.168C1057.836,614.278 1054.455,618.929 1051.735,624.016C1045.69,636.747 1045.69,651.531 1051.735,664.261C1056.816,676.617 1068.03,685.362 1081.224,687.259C1093.836,688.716 1106.282,683.412 1113.99,673.296C1122.642,660.681 1122.642,644.023 1113.99,631.408C1103.87,619.279 1090.928,610.215 1076.582,604.807C1086.726,599.01 1098.148,595.72 1109.894,595.269C1136.454,592.306 1163.07,600.313 1183.618,617.445C1187.248,619.775 1190.618,622.484 1193.668,625.523L1169.692,629.765L1197.542,629.765L1200,629.765C1199.21,628.508 1198.39,627.274 1197.542,626.065L1197.542,624.837L1196.766,624.975C1181.764,604.24 1158.47,590.936 1132.83,588.699C1116.156,586.714 1099.254,588.974 1083.682,595.269C1078.904,597.206 1074.414,599.708 1070.3,602.7C1059.645,599.557 1048.362,598.374 1036.99,599.376C1003.524,598.222 970.731,608.988 944.426,629.765C933.072,639.005 924.085,650.832 918.214,664.261C915.899,671.377 914.844,678.793 915.048,686.183C917.629,685.6 920.251,685.169 922.902,684.895C922.444,687.097 922.12,689.321 921.93,691.553ZM1196.766,624.975L1193.668,625.523C1195.024,626.873 1196.318,628.289 1197.542,629.765L1197.542,626.065C1197.286,625.7 1197.028,625.336 1196.766,624.975ZM1066.642,611.705C1065.026,611.154 1063.398,610.642 1061.76,610.168C1064.376,607.428 1067.234,604.928 1070.3,602.7C1072.42,603.325 1074.516,604.028 1076.582,604.807C1074.234,606.149 1071.956,607.626 1069.756,609.232C1068.682,610.018 1067.644,610.843 1066.642,611.705ZM1066.642,611.705C1073.968,614.203 1081.058,617.494 1087.778,621.552C1099.178,628.863 1106.698,640.926 1108.256,654.405C1109.062,666.113 1101.522,676.765 1090.234,679.867C1079.804,683.26 1068.356,680.391 1060.745,672.475C1052.48,664.003 1048.554,652.193 1050.096,640.443C1052.203,629.219 1058.061,619.096 1066.642,611.705ZM921.93,691.553C929.779,691.009 937.71,692.042 945.246,694.651C955.596,695.92 964.569,702.435 969.001,711.899C969.95,716.919 968.83,722.11 965.898,726.288C962.965,730.467 958.47,733.276 953.437,734.075C946.61,733.72 940.171,730.786 935.416,725.861C930.709,722.014 926.811,717.268 923.948,711.899C922.024,705.269 921.351,698.37 921.93,691.553ZM1199.122,608.096C1198.928,605.366 1198.928,602.626 1199.122,599.896L1199.122,601.536L1199.122,608.096ZM1199.122,608.096L1199.122,608.916C1198.988,611.374 1198.988,613.838 1199.122,616.296C1199.336,618.751 1199.336,621.221 1199.122,623.676C1198.014,618.542 1198.014,613.23 1199.122,608.096Z" clip-rule="evenodd" fill-rule="evenodd" transform="rotate(-150 1032 675)" fill="#E7C4B2"/>
<path d="M574,348C574,212.138 463.862,102 328,102C192.138,102 82,212.138 82,348L82,692.8C82,699.52 82,702.88 83.308,705.448C84.458,707.706 86.294,709.542 88.552,710.692C91.119,712 94.479,712 101.2,712L554.8,712C561.52,712 564.88,712 567.448,710.692C569.706,709.542 571.542,707.706 572.692,705.448C574,702.88 574,699.52 574,692.8L574,348Z" clip-rule="evenodd" fill-rule="evenodd" fill="#B550F8"/>
<rect  x="152" y="164" width="386" height="548" fill="url(#pattern_0_2_241)"/>
<path d="M998,372L962.581,441.7L963.61,363.524L899.858,408.78L937.099,340.037L859.618,350.482L924.54,306.92L851.079,280.161L928.809,271.759L876.198,213.926L948.929,242.61L929.221,166.952L980.291,226.15L998,150L1015.709,226.15L1066.78,166.952L1047.071,242.61L1119.802,213.926L1067.192,271.759L1144.92,280.161L1071.46,306.92L1136.382,350.482L1058.9,340.037L1096.142,408.78L1032.39,363.524L1033.419,441.7L998,372Z" fill="#F7CC47"/>
</svg>
