<svg width="520" height="242" viewBox="0 0 520 242" fill="none" xmlns="http://www.w3.org/2000/svg" xmlns:xlink="http://www.w3.org/1999/xlink">
<path d="M172.361,122.774C151.35,132.832 137.201,153.293 135.155,176.575L135.155,176.576C135.129,177.37 134.48,178 133.689,178C132.898,178 132.249,177.37 132.223,176.576C131.685,171.144 132.123,165.659 133.514,160.382C141.406,138.024 159.032,120.507 181.38,112.814C188.058,109.821 195.1,107.812 202.288,106.822C201.338,108.684 200.5,110.609 199.779,112.587C190.172,114.485 180.913,117.919 172.361,122.774ZM206.368,111.533C204.156,111.804 201.958,112.156 199.779,112.587C199.331,113.815 198.929,115.064 198.573,116.331C195.46,127.925 198.735,140.306 207.167,148.821C214.941,155.443 225.805,157.011 235.122,152.855C244.775,148.498 249.571,137.507 246.219,127.427C242.178,115.758 231.717,107.536 219.465,106.401C216.077,106.103 212.684,106.031 209.308,106.183C209.423,106.014 209.539,105.846 209.657,105.678C217.307,95.372 227.666,87.41 239.572,82.685C265.517,72.56 293.118,67.39 320.954,67.443C325.017,67.227 329.081,67.04 333.144,66.853C343.138,66.393 353.128,65.934 363.098,65.042C375.892,64.611 388.452,61.477 399.96,55.845C402.27,54.637 404.418,53.189 406.374,51.539C406.688,51.559 407.002,51.576 407.318,51.591C419.24,53.075 431.32,52.72 443.136,50.536C466.724,46.331 488.542,35.196 505.826,18.539C506.018,18.35 506.208,18.16 506.398,17.97C503.8,22.805 501.518,27.817 499.566,32.975C498.24,36.311 503.622,37.867 504.88,34.476C508.61,24.895 513.13,15.658 518.39,6.863C518.86,5.958 518.652,4.863 517.938,4.199C518.054,3.657 518.008,3.081 517.788,2.548C517.372,1.54 516.406,0.869 515.32,0.833L478.038,1.882C476.372,1.937 475.052,3.307 475.052,4.98C475.052,6.652 476.372,8.023 478.038,8.077L509.36,6.599C495.02,23.298 476.162,35.531 455.018,41.776C443.598,45.294 431.708,47.023 419.764,46.901C416.876,46.982 413.994,46.906 411.128,46.678C414.936,41.95 417.526,36.257 418.536,30.096C420.662,19.846 416.302,9.337 407.556,3.635C401.576,0.557 394.8,-0.607 388.142,0.299C382.1,0.589 376.298,2.757 371.536,6.504C367.482,10.798 365.318,16.55 365.532,22.464C365.746,28.378 368.318,33.957 372.672,37.946C380.002,44.154 388.71,48.407 397.996,50.386C392.828,53.816 386.902,56.084 380.622,56.936C367.348,59.427 353.892,60.809 340.39,61.067C336.492,61.275 332.59,61.46 328.689,61.645C318.393,62.134 308.094,62.623 297.826,63.524C270.328,64.366 243.536,72.47 220.15,87.02C212.513,91.958 206.374,98.81 202.288,106.822C204.615,106.502 206.958,106.288 209.308,106.183C208.153,107.887 207.172,109.679 206.368,111.533ZM403.786,45.751C406.216,46.172 408.666,46.482 411.128,46.678C409.706,48.441 408.116,50.07 406.374,51.539C403.544,51.359 400.746,50.973 397.996,50.386C400.054,49.02 401.992,47.47 403.786,45.751ZM403.786,45.751C396.982,44.572 390.334,42.517 384.012,39.621C378.392,37.009 374.04,32.257 371.916,26.417C369.862,21.094 371.126,15.055 375.142,11.014C379.982,7.405 385.956,5.666 391.968,6.114C398.016,5.703 403.964,7.824 408.402,11.973C414.16,19.719 414.716,30.182 409.812,38.499C408.066,41.162 406.042,43.59 403.786,45.751ZM514.502,4.889L512.96,2.192C511.794,3.693 510.594,5.163 509.36,6.599L513.444,6.407C513.792,5.898 514.146,5.392 514.502,4.889ZM206.368,111.533C206.781,111.482 207.195,111.435 207.609,111.389C220.175,108.905 232.967,114.445 239.791,125.327C242.436,130.006 242.795,135.646 240.763,140.624C238.73,144.667 235.047,147.622 230.672,148.723C221.157,151.563 210.987,147.115 206.579,138.184C202.71,129.639 202.716,119.95 206.368,111.533Z" clip-rule="evenodd" fill-rule="evenodd" fill="#E7C4B2"/>
<g filter="url(#filter2_125)">
<rect  x="0" y="106" width="432" height="136" rx="12" fill="#FFFFFF"/>
</g>
<circle cx="70" cy="174" r="40" fill="#EF6D58"/>
<circle cx="134" cy="174" r="40" fill="#B550F8" stroke="#FFFFFF" stroke-width="4" stroke-miterlimit="3.999327"/>
<circle cx="198" cy="174" r="40" fill="#F7CC47" stroke="#FFFFFF" stroke-width="4" stroke-miterlimit="3.999327"/>
<rect  x="262" y="146" width="124" height="28" rx="4" fill="#F5DED1"/>
<rect  x="262" y="190" width="102" height="12" rx="6" fill="#F5DED1"/>
<defs>
<filter id="filter2_125" x="-48" y="58" width="312" height="164" filterUnits="userSpaceOnUse" color-interpolation-filters="sRGB">
<feFlood flood-opacity="0" result="BackgroundImageFix"/>
<feColorMatrix in="SourceAlpha" type="matrix" values="0 0 0 0 0 0 0 0 0 0 0 0 0 0 0 0 0 0 127 0" result="hardAlpha"/>
<feMorphology radius="0" operator="dilate" in="SourceAlpha" result="0dropshadow"/>
<feOffset dx="0" dy="24"/>
<feGaussianBlur stdDeviation="24"/>
<feComposite in2="hardAlpha" operator="out"/>
<feColorMatrix type="matrix" values="0 0 0 0 0.333333 0 0 0 0 0.117647 0 0 0 0 0 0 0 0 0.08189 0"/>
<feBlend mode="normal" in2="BackgroundImageFix" result="0dropshadow"/>
<feBlend mode="normal" in="SourceGraphic" in2="0dropshadow" result="shape"/>
</filter>
</defs>
</svg>
