<svg width="296" height="296" viewBox="0 0 296 296" fill="none" xmlns="http://www.w3.org/2000/svg" xmlns:xlink="http://www.w3.org/1999/xlink">
<path d="M148,222L112.581,291.7L113.61,213.524L49.858,258.78L87.099,190.037L9.618,200.482L74.54,156.92L1.079,130.161L78.809,121.759L26.198,63.926L98.929,92.61L79.221,16.953L130.291,76.15L148,0L165.709,76.15L216.78,16.953L197.071,92.61L269.802,63.926L217.192,121.759L294.92,130.161L221.46,156.92L286.382,200.482L208.9,190.037L246.142,258.78L182.39,213.524L183.419,291.7L148,222Z" fill="#EF6D58"/>
<path d="M128,126C128,120.477 132.477,116 138,116C143.523,116 148,120.477 148,126C148,120.477 152.477,116 158,116C163.523,116 168,120.477 168,126L168,126.024C168,126.304 168,127.104 167.848,128L176,128C178.209,128 180,129.791 180,132L180,136C180,138.209 178.209,140 176,140L120,140C117.791,140 116,138.209 116,136L116,132C116,129.791 117.791,128 120,128L128.152,128C128.046,127.347 127.996,126.686 128,126.024L128,126ZM132.272,128L144,128L144,126C144,123.856 142.856,121.876 141,120.804C139.144,119.732 136.856,119.732 135,120.804C133.144,121.876 132,123.856 132,126C132,126.34 132.008,127.096 132.18,127.72C132.204,127.815 132.235,127.909 132.272,128ZM163.728,128L152,128L152,126C152,122.686 154.686,120 158,120C161.314,120 164,122.686 164,126C164,126.34 163.992,127.096 163.82,127.72C163.796,127.815 163.765,127.909 163.728,128ZM176,144L176,174C176,177.314 173.314,180 170,180L152,180L152,144L176,144ZM120,174C120,177.314 122.686,180 126,180L144,180L144,144L120,144L120,174Z" clip-rule="evenodd" fill-rule="evenodd" fill="#FFFFFF"/>
</svg>
