<svg width="564" height="484" viewBox="0 0 564 484" fill="none" xmlns="http://www.w3.org/2000/svg" xmlns:xlink="http://www.w3.org/1999/xlink">
<path d="M406.114,26.736C385.448,6.607 356.706,-2.949 328.106,0.8C300.256,4.72 275.518,20.632 260.394,44.348C251.762,57.647 246.502,72.851 245.072,88.643L248.896,84.812C213.506,81.752 177.9,87.319 145.131,101.039C117.613,114.195 98.174,139.872 92.974,169.933C90.262,185.888 93.646,202.278 102.453,215.854L105,209.602C61.793,220.57 25.91,250.578 7.465,291.17C-0.796,311.76 -2.243,334.458 3.336,355.932C8.781,375.66 21.407,392.638 38.732,403.526C57.198,415.698 80.137,418.976 101.272,412.466L95.413,409.14C108.06,446.566 140.404,473.898 179.409,480.118C223.406,488.85 269.058,482.754 309.224,462.784C333.244,451.484 355.06,435.994 373.648,417.044L370.166,418.488C394.602,419.998 419.106,416.976 442.442,409.574C464.026,403.132 484.506,393.45 503.182,380.856C520.472,369.464 534.958,354.304 545.554,336.512C555.176,319.756 559.406,300.44 557.666,281.194C556.264,259.882 545.786,240.194 528.89,227.13L528.89,235.888C552.648,217.76 565.756,188.94 563.81,159.115C561.53,136.178 550.18,115.104 532.286,100.58C514.39,86.055 491.436,79.286 468.526,81.777L472.106,90.426C488.238,74.959 492.644,50.892 483.038,30.712C472.95,11.086 450.806,0.842 429.322,5.86C417.484,8.201 406.926,14.833 399.674,24.484C398.356,26.779 399.124,29.708 401.398,31.061C403.698,32.334 406.59,31.575 407.97,29.338C419.262,16.098 437.552,11.205 453.944,17.039C470.492,23.497 480.362,40.56 477.71,58.129C476.742,67.807 472.188,76.771 464.944,83.258C463.542,84.723 463.14,86.878 463.914,88.751C464.69,90.624 466.498,91.862 468.524,91.908C495.09,88.891 521.37,99.565 538.312,120.253C554.462,140.839 558.588,168.408 549.168,192.821C544.342,206.55 535.494,218.506 523.774,227.13C522.436,227.938 521.54,229.312 521.34,230.864C521.14,232.414 521.66,233.972 522.75,235.092C550.792,260.022 556.432,301.7 536.02,333.188C525.29,350.484 510.67,365.036 493.328,375.688C474.262,387.832 453.426,396.94 431.566,402.684C419.752,405.914 407.652,407.982 395.436,408.864C389.512,409.248 383.564,409.212 377.634,409.02C374.73,408.558 371.778,408.486 368.854,408.804C366.29,410.16 364.068,412.08 362.35,414.416C346.962,429.324 329.424,441.834 310.322,451.532C273.97,470.908 232.476,478.448 191.634,473.096C156.523,469.846 125.349,449.284 108.533,418.284C106.891,414.508 105.574,410.598 104.596,406.598C103.876,404.078 101.269,402.598 98.736,403.274C63.226,413.23 26.069,394 13.682,359.256C7.125,339.942 7.147,319 13.743,299.698C20.278,280.44 31.916,263.316 47.414,250.15C64.881,235.302 85.271,224.288 107.263,217.818C108.529,217.452 109.558,216.526 110.054,215.304C110.551,214.082 110.46,212.7 109.809,211.554C96.268,188.163 98.257,158.896 114.837,137.552C133.759,113.232 161.961,97.904 192.657,95.257C211.29,92.706 230.108,91.771 248.9,92.462C250.992,92.419 252.678,90.735 252.726,88.643C255.338,62.882 268.746,39.435 289.622,24.122C310.888,8.977 337.674,3.792 363.054,9.907C377.806,13.233 391.568,19.989 403.222,29.627C404.032,30.348 405.262,30.311 406.03,29.545C406.796,28.778 406.832,27.547 406.112,26.736L406.112,26.736L406.114,26.736Z" clip-rule="evenodd" fill-rule="evenodd" fill="#E7C4B2"/>
</svg>
