<svg width="28" height="20" viewBox="0 0 28 20" fill="none" xmlns="http://www.w3.org/2000/svg" xmlns:xlink="http://www.w3.org/1999/xlink">
<path d="M28,10C28,9.448 27.552,9 27,9L3.414,9L9.708,2.708C9.961,2.455 10.06,2.087 9.967,1.741C9.875,1.396 9.605,1.126 9.259,1.033C8.914,0.941 8.545,1.039 8.292,1.292L0.292,9.292C0.104,9.48 -0.002,9.735 -0.002,10C-0.002,10.266 0.104,10.521 0.292,10.708L8.292,18.708C8.545,18.961 8.914,19.06 9.259,18.967C9.605,18.875 9.875,18.605 9.967,18.259C10.06,17.914 9.961,17.545 9.708,17.292L3.414,11L27,11C27.552,11 28,10.553 28,10Z" clip-rule="evenodd" fill-rule="evenodd" fill="#FFFFFF"/>
</svg>
