<svg width="386" height="334" viewBox="0 0 386 334" fill="none" xmlns="http://www.w3.org/2000/svg" xmlns:xlink="http://www.w3.org/1999/xlink">
<path d="M277.912,18.347C263.77,4.534 244.102,-2.024 224.53,0.549C205.472,3.239 188.542,14.158 178.194,30.433C172.285,39.558 168.686,49.992 167.708,60.829L170.325,58.2C146.106,56.1 121.74,59.921 99.316,69.335C80.485,78.363 67.182,95.984 63.624,116.612C61.768,127.56 64.084,138.808 70.111,148.124L71.853,143.834C42.287,151.36 17.731,171.953 5.109,199.807C-0.545,213.936 -1.535,229.512 2.283,244.248C6.009,257.786 14.649,269.436 26.505,276.91C39.142,285.262 54.839,287.51 69.303,283.042L65.293,280.762C73.948,306.444 96.082,325.2 122.773,329.468C152.882,335.46 184.122,331.278 211.608,317.572C228.046,309.818 242.974,299.19 255.696,286.184L253.312,287.176C270.034,288.212 286.802,286.138 302.772,281.058C317.542,276.638 331.558,269.994 344.338,261.352C356.17,253.534 366.084,243.13 373.334,230.922C379.918,219.424 382.812,206.168 381.622,192.962C380.662,178.336 373.492,164.827 361.93,155.862L361.93,161.871C378.188,149.431 387.158,129.655 385.826,109.188C384.266,93.449 376.5,78.987 364.254,69.02C352.008,59.053 336.3,54.408 320.622,56.117L323.072,62.052C334.112,51.439 337.126,34.923 330.552,21.075C323.648,7.608 308.496,0.578 293.794,4.021C285.692,5.628 278.468,10.179 273.506,16.801C272.604,18.376 273.128,20.386 274.684,21.315C276.258,22.188 278.238,21.668 279.182,20.133C286.91,11.047 299.426,7.689 310.642,11.692C321.968,16.124 328.722,27.833 326.906,39.89C326.244,46.53 323.128,52.682 318.17,57.134C317.212,58.139 316.936,59.618 317.466,60.903C317.996,62.188 319.234,63.038 320.62,63.069C338.8,60.999 356.784,68.324 368.378,82.52C379.43,96.647 382.252,115.566 375.808,132.318C372.504,141.739 366.45,149.943 358.43,155.862C357.514,156.416 356.9,157.36 356.764,158.424C356.628,159.488 356.982,160.557 357.728,161.326C376.918,178.433 380.778,207.032 366.81,228.64C359.466,240.51 349.462,250.496 337.594,257.806C324.548,266.138 310.29,272.388 295.33,276.33C287.244,278.546 278.964,279.966 270.604,280.572C266.55,280.836 262.48,280.81 258.422,280.678C256.436,280.362 254.414,280.312 252.414,280.53C250.66,281.462 249.138,282.778 247.964,284.382C237.434,294.612 225.432,303.196 212.36,309.852C187.483,323.148 159.088,328.322 131.139,324.648C107.112,322.42 85.779,308.31 74.271,287.036C73.148,284.444 72.247,281.762 71.577,279.018C71.084,277.286 69.3,276.272 67.567,276.736C43.267,283.568 17.839,270.372 9.363,246.53C4.876,233.276 4.891,218.904 9.404,205.66C13.877,192.444 21.841,180.693 32.446,171.659C44.4,161.47 58.352,153.911 73.402,149.471C74.269,149.22 74.973,148.584 75.312,147.746C75.652,146.908 75.59,145.96 75.144,145.173C65.878,129.121 67.239,109.038 78.585,94.391C91.534,77.702 110.833,67.184 131.839,65.367C144.589,63.617 157.467,62.975 170.328,63.449C171.759,63.42 172.913,62.265 172.945,60.829C174.733,43.151 183.908,27.061 198.194,16.553C212.748,6.16 231.078,2.602 248.446,6.799C258.54,9.081 267.958,13.717 275.932,20.331C276.488,20.825 277.33,20.8 277.854,20.274C278.378,19.748 278.404,18.903 277.91,18.347L277.91,18.347L277.912,18.347Z" clip-rule="evenodd" fill-rule="evenodd" fill="#E7C4B2"/>
</svg>
