<svg width="430" height="260" viewBox="0 0 430 260" fill="none" xmlns="http://www.w3.org/2000/svg" xmlns:xlink="http://www.w3.org/1999/xlink">
<path d="M405.412,38.696C385.764,10.533 351.92,-4.069 318.012,0.99C309.656,2.083 301.496,4.361 293.78,7.755C285.504,11.716 277.68,16.566 270.448,22.219C262.88,28.162 254.864,33.509 246.472,38.21C237.72,42.845 227.866,44.982 217.986,44.391C197.199,40.743 177.079,33.981 158.3,24.332C138.312,16.404 116.6,13.866 95.329,16.971C76.04,19.872 58.319,29.294 45.103,43.676C32.611,57.053 25.73,74.735 25.887,93.059C27.475,104.382 28.432,115.785 28.757,127.215C27.412,136.581 23.519,145.395 17.507,152.69C11.823,159.829 7.004,167.617 3.149,175.893C-0.114,184.153 -0.862,193.198 1.002,201.884C5.698,219.582 17.045,234.77 32.665,244.264C50.042,255.086 70.211,260.544 90.659,259.958C112.075,259.57 133.057,253.838 151.71,243.282C168.374,231.838 186.981,223.538 206.616,218.788C228.108,218.518 249.526,221.358 270.21,227.22C280.46,229.088 290.94,229.312 301.26,227.886C309.778,226.462 317.994,223.604 325.562,219.434C341.1,210.972 353.564,197.793 361.164,181.786C364.896,173.834 367.236,165.297 368.08,156.549C367.208,147.226 369.998,137.93 375.856,130.637C382.236,125.901 389.392,122.319 397.002,120.052C405.292,117.207 412.784,112.415 418.85,106.075C428.106,95.659 431.904,81.468 429.09,67.806C426.278,54.144 417.186,42.621 404.572,36.732C402.662,35.687 400.27,36.318 399.12,38.171C398.026,40.074 398.662,42.505 400.544,43.627C416.498,50.768 425.18,68.231 421.264,85.302C419.168,93.821 414.122,101.316 407.026,106.452C400.178,110.511 392.904,113.798 385.336,116.253C377.758,118.769 371.064,123.418 366.052,129.645C361.604,138.287 359.45,147.932 359.798,157.65C357.51,174.023 349.686,189.112 337.634,200.396C325.948,211.896 310.658,218.992 294.354,220.484C273.642,219.77 253.076,216.738 233.036,211.448C222.782,209.648 212.302,209.546 202.016,211.15C192.488,213.072 183.291,216.378 174.715,220.96C157.888,231.36 140.153,240.206 121.729,247.388C84.24,260.588 42.514,249.324 16.705,219.036C11.812,212.468 8.632,204.778 7.453,196.666C6.565,188.357 8.328,179.979 12.49,172.739C16.824,164.872 22.682,158.007 27.441,150.418C32.663,142.543 35.533,133.336 35.713,123.881C35.762,112.949 32.665,102.265 32.636,91.333C32.661,82.799 34.531,74.371 38.117,66.632C45.558,50.79 58.323,38.081 74.174,30.73C92.96,22.598 113.811,20.559 133.81,24.897C153.711,30.478 173.191,37.473 192.1,45.829C201.498,49.355 211.418,51.287 221.448,51.543C231.134,51.45 240.658,49.046 249.234,44.529C265.51,36.206 278.412,22.546 294.938,14.63C324.812,1.531 359.406,5.563 385.484,25.185C391.644,29.865 397.25,35.233 402.196,41.186C402.934,41.882 404.064,41.937 404.864,41.317C405.666,40.698 405.898,39.586 405.412,38.696L405.412,38.696L405.412,38.696Z" clip-rule="evenodd" fill-rule="evenodd" fill="#E7C4B2"/>
</svg>
