<svg width="224" height="164" viewBox="0 0 224 164" fill="none" xmlns="http://www.w3.org/2000/svg" xmlns:xlink="http://www.w3.org/1999/xlink">
<path d="M26.66,52.949C30.075,41.82 37.94,32.612 48.377,27.522C57.853,23.453 68.827,25.366 76.38,32.402C80.581,35.826 81.987,41.644 79.814,46.619C78.255,48.16 76.108,48.95 73.926,48.785C71.744,48.62 69.739,47.517 68.428,45.759C65.144,40.547 65.095,33.915 68.303,28.655C70.686,23.408 74.013,18.648 78.117,14.613C85.792,6.321 97.154,2.534 108.247,4.569C118.493,6.674 126.423,14.836 128.26,25.167C129.153,30.681 126.797,36.218 122.211,39.384C118.314,41.604 113.363,40.247 111.131,36.349C110.321,33.31 110.681,30.076 112.139,27.291C113.11,24.894 114.362,22.623 115.869,20.524C119.019,16.209 123.031,12.6 127.649,9.928C136.824,4.364 147.681,2.279 158.255,4.049C168.146,5.418 176.79,11.445 181.518,20.27C184.88,30.52 180.18,41.686 170.513,46.414C168.192,47.873 165.671,48.985 163.031,49.715C160.857,50.623 158.363,50.265 156.53,48.782C155.448,45.962 156.167,42.764 158.351,40.683C159.878,38.585 161.639,36.669 163.599,34.971C171.66,27.923 182.335,24.661 192.943,26.004C203.354,27.598 212.316,34.228 216.914,43.736C221.75,52.817 221.62,63.749 216.57,72.712C211.31,81.12 202.368,86.507 192.501,87.214C190.162,87.373 187.812,87.214 185.516,86.742C182.92,86.486 180.474,85.406 178.533,83.659C177.557,81.936 177.584,79.818 178.605,78.121C179.62,75.971 181.255,74.178 183.3,72.974C191.789,68.748 201.964,69.953 209.238,76.046C217.21,82.176 221.098,92.265 219.31,102.183C217.188,113.203 210.602,122.845 201.124,128.806C192.197,134.558 181.327,136.429 171,133.991C166.014,132.785 161.462,130.21 157.853,126.554C154.624,123.417 153.075,118.926 153.678,114.457C154.324,112.348 156.013,110.727 158.14,110.171C160.267,109.615 162.529,110.205 164.118,111.729C168.116,115.814 169.835,121.624 168.705,127.236C167.5,137.858 161.749,147.428 152.95,153.456C144.722,159.575 134.022,161.246 124.331,157.923C115.543,154.305 108.665,147.162 105.362,138.225C103.679,133.94 102.944,129.339 103.206,124.741C103.37,122.379 103.853,120.051 104.642,117.819C105.003,115.374 106.566,113.274 108.8,112.233C111.138,112.191 113.208,113.743 113.831,116.004C114.526,119.074 114.328,122.28 113.26,125.24C111.8,130.577 109.415,135.614 106.214,140.12C100.197,148.991 90.824,155.004 80.275,156.763C70.162,158.058 60.001,154.755 52.565,147.757C45.599,141.1 42.938,131.088 45.676,121.834C46.903,117.365 49.244,113.282 52.479,109.972C54.033,108.402 55.809,107.071 57.75,106.021C58.699,105.509 59.69,105.079 60.711,104.736C61.809,104.131 63.087,103.941 64.312,104.2C65.275,105.937 65.208,108.065 64.137,109.738C63.058,112.247 61.702,114.626 60.092,116.83C56.838,121.3 52.63,124.985 47.777,127.616C43.014,130.252 37.656,131.616 32.217,131.575C26.992,131.436 21.908,129.844 17.531,126.977C8.473,121.59 3.421,111.36 4.637,100.865C6.695,90.625 14.809,82.705 25.066,80.923C30.26,79.717 35.669,81.757 38.784,86.099C41.762,91.672 33.053,93.394 29.36,93.356C18.95,93.604 9.878,86.286 7.881,76.03C5.884,65.775 11.544,55.569 21.281,51.866C26.172,49.553 31.924,50.049 36.351,53.165C38.065,54.529 39.102,56.575 39.189,58.769C39.277,60.963 38.406,63.086 36.806,64.583C34.881,65.447 32.687,65.476 30.741,64.664C28.794,63.852 27.267,62.271 26.519,60.293C24.966,54.489 26.628,48.295 30.875,44.058C32.288,42.419 29.914,40.017 28.492,41.666C23.048,46.567 20.753,54.089 22.53,61.208C24.624,66.871 30.524,70.153 36.42,68.933C39.013,67.914 41.09,65.892 42.183,63.321C43.275,60.75 43.292,57.846 42.228,55.262C39.563,49.282 33.324,45.743 26.843,46.537C14.349,47.803 4.512,57.796 3.405,70.348C2.729,82.961 11.296,94.194 23.605,96.835C29.516,98.596 35.91,97.434 40.83,93.704C43.199,91.384 43.856,87.819 42.47,84.803C41.052,81.93 38.664,79.656 35.731,78.385C26.833,75.753 17.212,77.739 10.071,83.683C2.931,89.627 -0.792,98.748 0.142,108.01C0.993,114.153 3.679,119.893 7.846,124.474C16.443,134.225 29.881,138.111 42.331,134.446C48.397,132.589 53.938,129.316 58.5,124.895C60.89,122.594 62.998,120.015 64.78,117.213C66.529,114.676 67.845,111.864 68.671,108.892C69.596,106.194 68.96,103.203 67.018,101.118C64.077,99.513 60.501,99.634 57.674,101.432C52.648,103.627 48.39,107.278 45.444,111.916C39.008,121.595 38.463,134.06 44.029,144.267C50.516,154.596 61.689,161.02 73.85,161.413C86.433,161.716 98.461,156.213 106.484,146.481C110.7,141.573 113.977,135.927 116.151,129.826C119.583,123.715 119.168,116.162 115.09,110.465C112.746,108.085 109.206,107.351 106.114,108.605C103.311,110.338 101.29,113.098 100.477,116.299C98.586,121.653 98.137,127.414 99.176,132.998C101.214,144.224 108.036,153.997 117.854,159.756C128.467,165.608 141.372,165.396 151.789,159.198C162.774,153.024 170.375,142.182 172.455,129.721C173.847,123.111 172.48,116.218 168.674,110.647C166.802,108.092 163.965,106.423 160.829,106.032C157.693,105.641 154.536,106.562 152.097,108.579C148.469,113.075 147.975,119.349 150.854,124.361C153.605,129.605 158.074,133.736 163.508,136.057C175.148,141.049 188.406,140.528 199.621,134.638C211.258,128.713 219.704,117.943 222.706,105.199C224.094,99.202 223.778,92.935 221.788,87.111C219.798,81.816 216.39,77.176 211.938,73.702C203.492,66.244 191.412,64.596 181.288,69.522C175.873,72.188 172.942,78.192 174.162,84.12C175.538,87.016 178.171,89.113 181.296,89.799C184.099,90.734 187.029,91.231 189.982,91.273C201.684,91.297 212.62,85.447 219.122,75.685C225.362,65.407 225.634,52.56 219.83,42.026C214.31,31.079 203.628,23.692 191.469,22.412C179.035,21.366 166.8,26.039 158.206,35.117C154.41,39.182 148.741,47.238 154.654,52.045C160.46,54.683 167.262,53.714 172.107,49.559C177.636,46.355 182.001,41.464 184.566,35.597C186.735,30.253 186.688,24.26 184.435,18.95C179.004,8.566 168.746,1.606 157.119,0.417C144.789,-1.205 132.305,1.942 122.204,9.221C117.141,12.8 112.984,17.518 110.065,22.999C106.01,28.337 106.044,35.745 110.147,41.046C114.601,44.746 121.026,44.823 125.567,41.23C130.308,36.935 132.489,30.48 131.328,24.177C128.919,12.161 119.299,2.925 107.229,1.042C94.379,-0.517 81.624,4.612 73.404,14.646C68.67,19.743 65.185,25.878 63.228,32.563C60.971,38.838 62.97,45.859 68.191,49.99C70.326,51.678 73.044,52.441 75.742,52.111C78.44,51.78 80.895,50.383 82.562,48.229C85.286,42.516 84.094,35.698 79.594,31.257C71.36,22.52 58.592,19.82 47.544,24.479C36.066,29.838 27.537,40.015 24.244,52.281C24.084,52.942 24.476,53.612 25.13,53.793C25.784,53.974 26.463,53.6 26.663,52.949L26.663,52.949L26.66,52.949Z" clip-rule="evenodd" fill-rule="evenodd" fill="#8082A5"/>
</svg>
