<svg width="452" height="388" viewBox="0 0 452 388" fill="none" xmlns="http://www.w3.org/2000/svg" xmlns:xlink="http://www.w3.org/1999/xlink">
<path d="M325.466,21.433C308.906,5.297 285.87,-2.364 262.95,0.641C240.632,3.784 220.804,16.539 208.686,35.552C201.766,46.213 197.551,58.402 196.406,71.061L199.471,67.99C171.107,65.536 142.572,70 116.311,80.998C94.257,91.545 78.678,112.129 74.511,136.227C72.338,149.017 75.05,162.157 82.108,173.04L84.149,168.028C49.522,176.82 20.765,200.878 5.983,233.416C-0.638,249.924 -1.798,268.118 2.673,285.334C7.037,301.148 17.156,314.76 31.04,323.488C45.84,333.246 64.223,335.874 81.161,330.654L76.466,327.988C86.601,357.992 112.523,379.902 143.781,384.888C179.042,391.888 215.628,387.002 247.818,370.992C267.068,361.934 284.55,349.516 299.448,334.324L296.658,335.482C316.242,336.692 335.88,334.27 354.582,328.336C371.88,323.172 388.292,315.41 403.26,305.314C417.116,296.182 428.726,284.028 437.218,269.766C444.928,256.332 448.318,240.848 446.924,225.42C445.8,208.334 437.402,192.552 423.862,182.079L423.862,189.1C442.902,174.567 453.408,151.464 451.848,127.555C450.02,109.168 440.924,92.273 426.584,80.63C412.242,68.987 393.846,63.56 375.486,65.557L378.354,72.49C391.282,60.091 394.814,40.798 387.114,24.62C379.03,8.887 361.284,0.675 344.066,4.697C334.578,6.575 326.118,11.891 320.306,19.627C319.25,21.467 319.866,23.815 321.688,24.9C323.53,25.92 325.85,25.312 326.954,23.519C336.004,12.905 350.662,8.983 363.798,13.659C377.062,18.837 384.97,32.515 382.846,46.6C382.07,54.357 378.42,61.544 372.614,66.744C371.492,67.919 371.168,69.646 371.79,71.148C372.412,72.649 373.86,73.642 375.484,73.678C396.774,71.259 417.836,79.817 431.412,96.401C444.356,112.904 447.662,135.005 440.114,154.576C436.246,165.581 429.154,175.166 419.762,182.079C418.69,182.727 417.972,183.829 417.812,185.073C417.652,186.316 418.068,187.564 418.942,188.463C441.416,208.448 445.934,241.858 429.576,267.1C420.976,280.966 409.26,292.632 395.362,301.17C380.082,310.906 363.384,318.208 345.866,322.812C336.396,325.402 326.7,327.06 316.91,327.766C312.162,328.076 307.396,328.046 302.642,327.892C300.316,327.522 297.95,327.464 295.606,327.718C293.552,328.806 291.77,330.344 290.394,332.218C278.062,344.168 264.006,354.198 248.698,361.972C219.564,377.506 186.311,383.548 153.579,379.258C125.44,376.654 100.457,360.17 86.98,335.318C85.665,332.292 84.609,329.158 83.825,325.952C83.248,323.93 81.159,322.744 79.129,323.286C50.67,331.268 20.892,315.852 10.965,287.998C5.71,272.516 5.727,255.726 11.014,240.254C16.252,224.816 25.578,211.088 37.999,200.534C51.997,188.631 68.337,179.8 85.962,174.614C86.977,174.321 87.802,173.578 88.2,172.599C88.597,171.619 88.525,170.512 88.003,169.593C77.151,150.841 78.745,127.379 92.032,110.269C107.197,90.773 129.799,78.485 154.399,76.363C169.331,74.318 184.412,73.568 199.473,74.122C201.15,74.088 202.5,72.738 202.538,71.061C204.632,50.409 215.378,31.613 232.108,19.338C249.152,7.196 270.618,3.04 290.958,7.942C302.782,10.608 313.81,16.024 323.15,23.751C323.798,24.328 324.786,24.299 325.4,23.685C326.014,23.07 326.042,22.083 325.466,21.433L325.466,21.433L325.466,21.433Z" clip-rule="evenodd" fill-rule="evenodd" fill="#E7C4B2"/>
</svg>
