<svg width="48" height="48" viewBox="0 0 48 48" fill="none" xmlns="http://www.w3.org/2000/svg" xmlns:xlink="http://www.w3.org/1999/xlink">
<path d="M5.656,1.531C6.718,0.47 8.184,-0.083 9.681,0.01C11.179,0.104 12.564,0.835 13.486,2.02L18.871,8.938C19.858,10.207 20.206,11.86 19.816,13.42L18.175,19.99C18.002,20.683 18.205,21.415 18.709,21.92L26.08,29.291C26.585,29.796 27.318,29.999 28.012,29.825L34.578,28.184C36.138,27.794 37.791,28.142 39.06,29.129L45.978,34.511C48.465,36.446 48.693,40.121 46.467,42.344L43.365,45.447C41.145,47.667 37.827,48.642 34.734,47.553C26.818,44.767 19.631,40.235 13.705,34.292C7.763,28.367 3.231,21.18 0.445,13.264C-0.641,10.174 0.334,6.853 2.554,4.633L5.656,1.531Z" clip-rule="evenodd" fill-rule="evenodd" fill="#FFFFFF"/>
</svg>
