<svg width="30" height="20" viewBox="0 0 30 20" fill="none" xmlns="http://www.w3.org/2000/svg" xmlns:xlink="http://www.w3.org/1999/xlink">
<path d="M0,10C0,9.448 0.448,9 1,9L24.586,9L18.292,2.708C17.901,2.317 17.901,1.683 18.292,1.292C18.683,0.901 19.317,0.901 19.708,1.292L27.708,9.292C27.896,9.48 28.002,9.735 28.002,10C28.002,10.266 27.896,10.521 27.708,10.708L19.708,18.708C19.317,19.099 18.683,19.099 18.292,18.708C17.901,18.317 17.901,17.683 18.292,17.292L24.586,11L1,11C0.448,11 0,10.553 0,10Z" clip-rule="evenodd" fill-rule="evenodd" fill="#FFFFFF"/>
</svg>
