<svg width="888" height="864" viewBox="0 0 888 864" fill="none" xmlns="http://www.w3.org/2000/svg" xmlns:xlink="http://www.w3.org/1999/xlink">
<mask id="mask_0_2_713" style="mask-type:alpha" maskUnits="userSpaceOnUse" x="396" y="115.999512" width="246" height="305">
<path d="M888,362C888,226.138 777.862,116 642,116C506.138,116 396,226.138 396,362L396,706.8C396,713.52 396,716.88 397.308,719.448C398.458,721.706 400.294,723.542 402.552,724.692C405.119,726 408.479,726 415.2,726L868.8,726C875.52,726 878.88,726 881.448,724.692C883.706,723.542 885.542,721.706 886.692,719.448C888,716.88 888,713.52 888,706.8L888,362Z" clip-rule="evenodd" fill-rule="evenodd" fill="#F7CC47"/>
</mask>
<circle cx="458" cy="546" r="318" fill="#F38472"/>
<path d="M310.085,188.053C291.706,189.92 273.328,191.786 254.929,193.447C253.296,193.598 253.344,191.107 254.929,190.922L255.283,190.881C262.037,190.093 268.781,189.307 275.539,188.583C299.71,186.006 323.88,183.425 348.051,180.842C348.729,180.856 349.334,181.269 349.593,181.895C349.852,182.521 349.715,183.241 349.244,183.728C346.439,185.935 343.647,188.161 340.855,190.387C337.71,192.896 334.564,195.405 331.397,197.886C311.492,213.476 291.589,229.066 271.686,244.656C269.953,244.541 268.219,244.421 266.486,244.296L267.875,247.641C269.145,246.646 270.416,245.651 271.686,244.656C275.893,244.934 280.1,245.18 284.308,245.395C305.228,246.45 326.145,246.684 347.058,246.098C347.997,246.125 348.807,246.763 349.053,247.669C349.298,248.574 348.921,249.533 348.124,250.03L331.187,261.54C312.83,273.939 294.473,286.335 276.119,298.728C274.36,298.456 272.604,298.175 270.849,297.885L271.377,301.929C272.957,300.862 274.538,299.795 276.119,298.728C279.823,299.3 283.535,299.834 287.253,300.327C306.458,302.856 325.781,304.387 345.146,304.913C346.174,304.941 347.063,305.639 347.332,306.63C347.601,307.622 347.188,308.672 346.315,309.215C330.501,319.048 314.689,328.884 298.879,338.722C296.558,338.447 294.233,338.203 291.904,337.99L293.078,342.332C295.011,341.129 296.945,339.925 298.879,338.722C310.672,340.12 322.359,342.319 333.858,345.306C334.755,345.575 335.412,346.345 335.533,347.273C335.654,348.201 335.219,349.114 334.42,349.604C325.312,353.706 316.695,358.81 308.728,364.821C307.716,364.238 306.703,363.656 305.691,363.073L306.17,366.799C307.015,366.129 307.868,365.47 308.728,364.821C312.971,367.262 317.214,369.701 321.459,372.137L325.24,374.301C326.367,374.796 327.427,375.431 328.394,376.191C329.181,377.457 329.648,378.895 329.754,380.381L330.59,384.02C331.725,389.036 332.747,394.076 333.657,399.14C334.828,405.7 335.832,412.278 336.669,418.878C337.108,417.814 337.552,416.754 337.996,415.694C338.337,414.878 338.679,414.062 339.019,413.244C339.145,412.942 339.275,412.64 339.405,412.336C339.683,411.69 339.962,411.042 340.214,410.384C340.519,409.262 341.168,408.276 342.062,407.574C342.556,407.284 343.161,407.288 343.653,407.582C344.145,407.876 344.452,408.418 344.462,409.01C344.456,410.208 344.123,411.38 343.502,412.39L342.273,415.23C342.012,415.83 341.753,416.432 341.493,417.034C340.867,418.484 340.242,419.934 339.604,421.38L337.52,426.116C337.673,427.53 337.818,428.946 337.956,430.362C337.948,431.134 337.584,431.86 336.968,432.328C336.352,432.798 335.555,432.956 334.806,432.76C334.663,432.722 334.52,432.682 334.377,432.642C334.214,432.91 334.048,433.176 333.878,433.44L333.874,433.428C333.929,433.334 333.975,433.23 334.007,433.12C334.076,432.942 334.153,432.77 334.239,432.604C333.977,432.528 333.717,432.45 333.459,432.368L333.874,433.428C333.581,433.924 333.001,434.18 332.438,434.018C331.767,433.826 331.365,433.112 331.531,432.41C331.584,432.186 331.639,431.962 331.697,431.74C327.007,429.882 322.904,426.752 319.87,422.674C319.181,421.478 319.582,419.952 320.77,419.246C321.973,418.59 323.48,418.984 324.208,420.144C326.431,423.022 329.325,425.282 332.613,426.744C332.669,427.27 332.723,427.796 332.776,428.322C332.939,427.888 333.11,427.458 333.289,427.032C333.062,426.94 332.837,426.844 332.613,426.744C330.936,410.814 328.276,395.002 324.649,379.397C324.941,379.565 325.232,379.734 325.524,379.902L324.438,378.491C324.509,378.793 324.579,379.095 324.649,379.397C318.897,376.072 313.125,372.78 307.352,369.488C305.998,368.716 304.644,367.943 303.29,367.171C302.66,366.794 302.237,366.151 302.144,365.424C302.05,364.697 302.296,363.967 302.81,363.444C310.111,357.591 317.993,352.51 326.328,348.277C328.427,348.772 330.519,349.294 332.605,349.843L332.043,345.541C330.116,346.409 328.21,347.321 326.328,348.277C315.001,345.606 303.498,343.725 291.904,342.649C290.869,342.616 289.977,341.912 289.706,340.914C289.435,339.916 289.849,338.858 290.725,338.308C306.32,328.622 321.917,318.935 337.515,309.247C340.058,309.363 342.601,309.459 345.146,309.533L343.982,305.23C341.826,306.569 339.67,307.908 337.515,309.247C334.505,309.11 331.496,308.946 328.487,308.761C308.782,307.554 289.151,305.349 269.67,302.154C268.831,301.893 268.22,301.169 268.106,300.298C267.993,299.428 268.397,298.571 269.142,298.105C274.801,294.289 280.459,290.477 286.118,286.667C304.031,274.561 321.967,262.488 339.925,250.448C342.303,250.415 344.681,250.372 347.058,250.318L345.987,246.386C343.966,247.74 341.946,249.094 339.925,250.448C336.35,250.498 332.774,250.525 329.197,250.528C308.254,250.547 287.35,249.776 266.486,248.213C264.99,248.105 263.625,246.015 265.097,244.872L283.086,230.851C302.859,215.496 322.633,200.143 342.407,184.791C344.288,184.603 346.17,184.414 348.051,184.226L346.853,181.34C345.371,182.49 343.889,183.641 342.407,184.791C337.419,185.292 332.43,185.793 327.441,186.297C321.655,186.878 315.87,187.466 310.085,188.053Z" clip-rule="evenodd" fill-rule="evenodd" transform="rotate(306 301.722 307.454)" fill="#FFD5CE"/>
<path d="M339.793,799.017C337.646,811.439 336.556,824.024 336.536,836.633L336.537,836.633C336.517,837.94 334.409,838.322 334.204,836.951C332.261,822.427 332.865,807.671 335.987,793.359C341.213,767.927 352.049,744.011 367.69,723.388C375.508,712.998 384.479,703.547 394.428,695.219C399.812,690.797 405.454,686.715 411.321,682.991L411.457,682.964C414.774,682.293 418.086,681.613 421.394,680.915C421.936,679.216 424.221,678.89 425.099,680.125C426.428,679.838 427.756,679.548 429.083,679.254L426.966,674.18C421.598,676.842 416.376,679.783 411.321,682.991L403.118,684.64C403.541,684.388 403.813,683.924 403.813,683.411C403.813,682.784 403.407,682.23 402.812,682.047C400.741,681.529 398.684,681.237 396.603,680.941C395.902,680.842 395.199,680.742 394.491,680.633L393.727,686.316C392.499,686.27 391.396,685.431 391.054,684.18C390.642,682.673 391.484,681.107 392.959,680.633C395.846,679.788 398.792,679.168 401.773,678.778L410.252,677.125C416.031,675.992 421.822,674.917 427.625,673.899C428.951,673.562 430.323,674.243 430.869,675.508C431.412,676.784 430.929,678.269 429.743,678.973C428.294,679.645 426.857,680.342 425.433,681.062C425.442,681.162 425.446,681.267 425.444,681.376C425.379,685.441 424.884,689.489 423.968,693.45C423.469,695.5 422.83,697.514 422.056,699.476C421.614,701.215 420.679,702.788 419.362,704.005C418.884,704.283 418.304,704.323 417.792,704.115C417.28,703.906 416.894,703.472 416.746,702.94C416.676,701.211 417.01,699.49 417.722,697.914C418.227,696.266 418.656,694.592 419.086,692.918C419.122,692.778 419.158,692.639 419.194,692.5C419.975,689.497 420.588,686.454 421.031,683.385C411.489,688.633 402.558,694.962 394.413,702.255C375.556,718.973 360.612,739.71 350.66,762.967C345.716,774.536 342.071,786.629 339.793,799.017ZM399.548,685.459C400.579,685.247 401.604,685.007 402.623,684.739L403.118,684.64C403.023,684.696 402.921,684.742 402.812,684.775C401.722,685.054 400.636,685.271 399.548,685.459ZM399.548,685.459C397.623,685.854 395.678,686.151 393.722,686.349L393.727,686.316C393.978,686.325 394.234,686.301 394.491,686.24C395.178,686.131 395.861,686.03 396.542,685.929C397.548,685.78 398.549,685.631 399.548,685.459Z" clip-rule="evenodd" fill-rule="evenodd" transform="rotate(-72 382.091 755.813)" fill="#FFD5CE"/>
<path d="M888,362C888,226.138 777.862,116 642,116C506.138,116 396,226.138 396,362L396,706.8C396,713.52 396,716.88 397.308,719.448C398.458,721.706 400.294,723.542 402.552,724.692C405.119,726 408.479,726 415.2,726L868.8,726C875.52,726 878.88,726 881.448,724.692C883.706,723.542 885.542,721.706 886.692,719.448C888,716.88 888,713.52 888,706.8L888,362Z" clip-rule="evenodd" fill-rule="evenodd" fill="#F7CC47"/>
<rect  x="396" y="166" width="492" height="560" fill="url(#pattern_0_2_716)"/>
<rect  x="28" y="432" width="428" height="224" rx="12" fill="#FFFFFF"/>
<circle cx="107" cy="513" r="45" fill="#F7CC47"/>
<rect  x="194" y="486" width="124" height="28" rx="4" fill="#FFE4DF"/>
<rect  x="194" y="562" width="12" height="58" rx="6" fill="#FFE4DF"/>
<rect  x="228" y="552" width="12" height="68" rx="6" fill="#FFE4DF"/>
<rect  x="264" y="544" width="12" height="76" rx="6" fill="#FFE4DF"/>
<rect  x="298" y="558" width="12" height="62" rx="6" fill="#FFE4DF"/>
<rect  x="332" y="570" width="12" height="50" rx="6" fill="#FFE4DF"/>
<rect  x="368" y="562" width="12" height="58" rx="6" fill="#FFE4DF"/>
<rect  x="402" y="578" width="12" height="42" rx="6" fill="#FFE4DF"/>
<path d="M178,252L142.581,321.7L143.61,243.524L79.858,288.78L117.099,220.036L39.618,230.482L104.54,186.919L31.079,160.16L108.809,151.759L56.198,93.926L128.929,122.61L109.221,46.952L160.291,106.15L178,30L195.709,106.15L246.78,46.952L227.071,122.61L299.802,93.926L247.192,151.759L324.92,160.16L251.46,186.919L316.382,230.482L238.9,220.036L276.142,288.78L212.39,243.524L213.419,321.7L178,252Z" transform="rotate(26 178 178)" fill="#F094E3"/>
<path d="M194,162C194,170.836 186.837,178 178,178C169.163,178 162,170.836 162,162C162,153.163 169.163,146 178,146C186.837,146 194,153.163 194,162ZM146,204.666C146,210 151.333,210 151.333,210L204.667,210C204.667,210 210,210 210,204.666C210,199.333 204.667,183.333 178,183.333C151.333,183.333 146,199.333 146,204.666Z" clip-rule="evenodd" fill-rule="evenodd" fill="#FFFFFF"/>
</svg>
