<svg width="32" height="32" viewBox="0 0 32 32" fill="none" xmlns="http://www.w3.org/2000/svg" xmlns:xlink="http://www.w3.org/1999/xlink">
<path d="M16,32C24.837,32 32,24.837 32,16C32,7.163 24.837,0 16,0C7.163,0 0,7.163 0,16C0,24.837 7.163,32 16,32ZM15,6C15.552,6 16,6.448 16,7L16,17.42L22.496,21.132C22.961,21.413 23.117,22.013 22.848,22.484C22.578,22.956 21.982,23.126 21.504,22.868L14.504,18.868C14.192,18.69 14,18.359 14,18L14,7C14,6.448 14.448,6 15,6Z" clip-rule="evenodd" fill-rule="evenodd" fill="#EF6D58"/>
</svg>
