<svg width="48" height="36" viewBox="0 0 48 36" fill="none" xmlns="http://www.w3.org/2000/svg" xmlns:xlink="http://www.w3.org/1999/xlink">
<path d="M6,0C3.2,0 0.773,1.936 0.15,4.665L24,19.242L47.85,4.665C47.227,1.936 44.8,0 42,0L6,0ZM0,29.403L0,8.091L17.409,18.729L0,29.403ZM20.283,20.49L0.573,32.571C1.567,34.667 3.68,36.002 6,36L42,36C44.319,36.001 46.431,34.664 47.424,32.568L27.714,20.487L24,22.758L20.283,20.487L20.283,20.49ZM48,29.403L30.591,18.732L30.591,18.729L48,8.091L48,29.403Z" clip-rule="evenodd" fill-rule="evenodd" fill="#FFFFFF"/>
</svg>
