<svg width="46" height="48" viewBox="0 0 46 48" fill="none" xmlns="http://www.w3.org/2000/svg" xmlns:xlink="http://www.w3.org/1999/xlink">
<path d="M25.026,47.912C36.895,46.887 45.998,37.17 46,25.524C45.998,15.374 39.04,6.483 29.018,3.824C29.284,2.919 29.099,1.945 28.519,1.193C27.939,0.441 27.031,-0.001 26.068,0L19.935,0C18.972,-0.001 18.064,0.441 17.484,1.193C16.904,1.945 16.719,2.919 16.985,3.824C5.484,6.871 -1.731,17.999 0.36,29.465C2.451,40.931 13.156,48.937 25.026,47.912ZM34.924,13.824L34.93,13.82L34.924,13.823L34.924,13.824ZM34.924,13.824L19.751,22.296L11.073,37.135L26.252,28.659L34.924,13.824Z" clip-rule="evenodd" fill-rule="evenodd" fill="#FFFFFF"/>
</svg>
