<svg width="84" height="112" viewBox="0 0 84 112" fill="none" xmlns="http://www.w3.org/2000/svg" xmlns:xlink="http://www.w3.org/1999/xlink">
<path d="M69.998,0C69.566,0 69.181,0.274 69.039,0.683L69.039,0.69L67.24,6.101C66.435,8.523 64.539,10.42 62.117,11.225L56.699,13.031C56.291,13.172 56.017,13.557 56.017,13.99C56.017,14.422 56.291,14.807 56.699,14.949L62.11,16.755C64.53,17.56 66.428,19.459 67.233,21.879L69.039,27.297C69.181,27.705 69.566,27.979 69.998,27.979C70.43,27.979 70.815,27.705 70.957,27.297L72.763,21.879C73.568,19.459 75.466,17.56 77.886,16.755L83.304,14.949C83.712,14.807 83.986,14.422 83.986,13.99C83.986,13.557 83.712,13.172 83.304,13.031L77.886,11.225C75.464,10.42 73.568,8.523 72.763,6.101L70.957,0.683C70.815,0.274 70.43,0 69.998,0ZM19.561,8.026C19.767,7.404 20.348,6.984 21.003,6.984C21.658,6.984 22.239,7.404 22.445,8.026L25.154,16.16C26.365,19.786 29.206,22.628 32.832,23.839L40.965,26.548C41.587,26.754 42.007,27.335 42.007,27.99C42.007,28.645 41.587,29.226 40.965,29.432L32.832,32.141C29.207,33.349 26.362,36.194 25.154,39.82L22.445,47.954C22.239,48.575 21.658,48.995 21.003,48.995C20.348,48.995 19.767,48.575 19.561,47.954L16.853,39.82C15.645,36.194 12.8,33.349 9.175,32.141L1.041,29.432C0.42,29.226 0,28.645 0,27.99C0,27.335 0.42,26.754 1.041,26.548L9.175,23.839C12.8,22.631 15.645,19.785 16.853,16.16L19.561,8.026ZM46.6,43.719C47.369,41.409 50.631,41.409 51.401,43.719L55.916,57.278C57.93,63.321 62.673,68.062 68.717,70.074L82.268,74.589C84.577,75.359 84.577,78.621 82.268,79.391L68.71,83.906C62.668,85.921 57.927,90.665 55.916,96.709L51.401,110.261C51.061,111.299 50.092,112 49,112C47.908,112 46.94,111.299 46.6,110.261L42.085,96.702C40.072,90.66 35.331,85.919 29.29,83.906L15.733,79.391C14.695,79.05 13.994,78.082 13.994,76.99C13.994,75.898 14.695,74.929 15.733,74.589L29.29,70.074C35.331,68.06 40.072,63.319 42.085,57.278L46.6,43.719Z" clip-rule="evenodd" fill-rule="evenodd" fill="#FFFFFF"/>
</svg>
