<svg width="200" height="160" viewBox="0 0 200 160" fill="none" xmlns="http://www.w3.org/2000/svg" xmlns:xlink="http://www.w3.org/1999/xlink">
<path d="M89.933,90C89.993,90.3 91.901,116.6 73.035,137.08C59.016,152.29 37.802,160 9.993,160L0,160L0,131.8L8.024,130.2C21.824,127.44 31.387,121.97 36.463,113.96C39.062,109.751 40.538,104.944 40.75,100L9.993,100C4.474,100 0,95.523 0,90L0,20C0,8.97 8.963,0 19.985,0L79.94,0C85.459,0 89.933,4.477 89.933,10L89.933,90ZM199.921,90C199.981,90.3 201.88,116.6 183.023,137.08C169.004,152.29 147.79,160 119.98,160L109.988,160L109.988,131.8L118.012,130.2C131.812,127.44 141.374,121.97 146.451,113.96C149.05,109.751 150.526,104.944 150.737,100L119.98,100C114.462,100 109.988,95.523 109.988,90L109.988,20C109.988,8.97 118.951,0 129.973,0L189.928,0C195.447,0 199.921,4.477 199.921,10L199.921,90Z" clip-rule="evenodd" fill-rule="evenodd" fill="#494A69"/>
</svg>
