<svg width="64" height="64" viewBox="0 0 64 64" fill="none" xmlns="http://www.w3.org/2000/svg" xmlns:xlink="http://www.w3.org/1999/xlink">
<path d="M35.728,2.91C34.752,-0.97 29.244,-0.97 28.272,2.91L27.988,4.054C27.65,5.408 26.604,6.471 25.256,6.832C23.908,7.193 22.47,6.794 21.501,5.79L20.681,4.946C17.901,2.07 13.129,4.83 14.229,8.669L14.553,9.805C14.935,11.146 14.56,12.588 13.574,13.573C12.588,14.558 11.146,14.932 9.805,14.549L8.669,14.229C4.826,13.129 2.07,17.901 4.946,20.681L5.79,21.501C6.794,22.47 7.193,23.908 6.832,25.256C6.471,26.604 5.408,27.65 4.054,27.988L2.91,28.272C-0.97,29.248 -0.97,34.756 2.91,35.728L4.054,36.012C5.408,36.35 6.471,37.396 6.832,38.744C7.193,40.092 6.794,41.53 5.79,42.499L4.946,43.319C2.07,46.099 4.83,50.871 8.669,49.771L9.805,49.447C11.146,49.065 12.588,49.44 13.573,50.426C14.559,51.412 14.932,52.854 14.549,54.195L14.229,55.331C13.129,59.174 17.901,61.93 20.681,59.054L21.501,58.21C22.47,57.206 23.908,56.807 25.256,57.168C26.604,57.529 27.65,58.592 27.988,59.946L28.272,61.09C29.248,64.97 34.756,64.97 35.728,61.09L36.012,59.946C36.35,58.592 37.396,57.529 38.744,57.168C40.092,56.807 41.53,57.206 42.499,58.21L43.319,59.054C46.099,61.93 50.871,59.17 49.771,55.331L49.447,54.199C49.063,52.857 49.437,51.414 50.423,50.427C51.41,49.441 52.854,49.067 54.195,49.451L55.331,49.771C59.174,50.871 61.93,46.099 59.054,43.319L58.21,42.499C57.206,41.53 56.807,40.092 57.168,38.744C57.529,37.396 58.592,36.35 59.946,36.012L61.09,35.728C64.97,34.752 64.97,29.244 61.09,28.272L59.946,27.988C58.592,27.65 57.529,26.604 57.168,25.256C56.807,23.908 57.206,22.47 58.21,21.501L59.054,20.681C61.93,17.901 59.17,13.129 55.331,14.229L54.199,14.553C52.857,14.937 51.414,14.563 50.427,13.577C49.441,12.59 49.067,11.147 49.451,9.805L49.771,8.669C50.871,4.826 46.099,2.07 43.319,4.946L42.499,5.79C41.53,6.794 40.092,7.193 38.744,6.832C37.396,6.471 36.35,5.408 36.012,4.054L35.728,2.91ZM33,34L51.891,34C51.206,40.822 47.073,46.817 40.941,49.883C34.809,52.949 27.533,52.66 21.665,49.115L33,34ZM51.891,30C51.206,23.178 47.073,17.183 40.941,14.117C34.809,11.051 27.533,11.34 21.665,14.885L33,30.004L51.891,30.004L51.891,30ZM12.009,32C12.004,26.407 14.347,21.069 18.469,17.289L29.5,32L18.469,46.711C14.497,43.059 12.009,37.82 12.009,32Z" clip-rule="evenodd" fill-rule="evenodd" fill="#FFFFFF"/>
</svg>
