<svg width="320" height="96" viewBox="0 0 320 96" fill="none" xmlns="http://www.w3.org/2000/svg" xmlns:xlink="http://www.w3.org/1999/xlink">
<circle cx="272" cy="48" r="48" fill="#EF6D58"/>
<path d="M272,32C267.653,32 267.112,32.019 265.403,32.099C259.589,32.365 256.363,35.589 256.096,41.403C256.019,43.112 256,43.656 256,48C256,52.347 256.019,52.891 256.096,54.597C256.363,60.408 259.589,63.637 265.403,63.904C267.112,63.981 267.653,64 272,64C276.347,64 276.891,63.981 278.6,63.904C284.403,63.637 287.643,60.413 287.904,54.597C287.981,52.891 288,52.347 288,48C288,43.656 287.981,43.112 287.904,41.403C287.643,35.597 284.413,32.363 278.6,32.099C276.891,32.019 276.347,32 272,32ZM272,34.885C276.272,34.885 276.779,34.901 278.467,34.979C282.805,35.176 284.827,37.232 285.027,41.536C285.101,43.224 285.117,43.728 285.117,48C285.117,52.272 285.101,52.779 285.027,54.464C284.827,58.765 282.808,60.827 278.467,61.024C276.779,61.099 276.275,61.117 272,61.117C267.728,61.117 267.221,61.101 265.536,61.024C261.189,60.824 259.176,58.76 258.976,54.464C258.901,52.779 258.883,52.272 258.883,48C258.883,43.728 258.901,43.221 258.976,41.536C259.173,37.229 261.195,35.173 265.536,34.976C267.221,34.899 267.728,34.885 272,34.885ZM263.784,48C263.784,43.461 267.464,39.784 272,39.784C276.536,39.784 280.216,43.464 280.216,48C280.216,52.539 276.536,56.216 272,56.216C267.464,56.216 263.784,52.539 263.784,48ZM272,53.333C269.053,53.333 266.667,50.947 266.667,48C266.667,45.056 269.053,42.667 272,42.667C274.944,42.667 277.336,45.053 277.336,48C277.336,50.947 274.944,53.333 272,53.333ZM278.619,39.461C278.619,38.4 279.48,37.541 280.539,37.541C281.603,37.541 282.461,38.4 282.461,39.461C282.461,40.523 281.6,41.381 280.539,41.381C279.477,41.381 278.619,40.52 278.619,39.461Z" clip-rule="evenodd" fill-rule="evenodd" fill="#FFFFFF"/>
<circle cx="160" cy="48" r="48" fill="#EF6D58"/>
<path d="M176,39.08C174.824,39.603 173.557,39.955 172.229,40.115C173.587,39.301 174.624,38.016 175.117,36.483C173.848,37.235 172.443,37.781 170.947,38.075C169.752,36.797 168.043,36 166.157,36C161.917,36 158.803,39.955 159.76,44.061C154.307,43.787 149.467,41.173 146.229,37.203C144.509,40.152 145.339,44.013 148.261,45.968C147.187,45.933 146.176,45.637 145.291,45.147C145.219,48.187 147.4,51.032 150.557,51.667C149.635,51.917 148.621,51.976 147.592,51.779C148.427,54.387 150.856,56.283 153.725,56.336C150.96,58.501 147.485,59.469 144,59.059C146.907,60.923 150.355,62.008 154.061,62.008C166.253,62.008 173.139,51.712 172.723,42.477C174.008,41.555 175.12,40.397 176,39.08L176,39.08Z" fill="#FFFFFF"/>
<circle cx="48" cy="48" r="48" fill="#EF6D58"/>
<path d="M43.333,42.667L38,42.667L38,48L43.333,48L43.333,64L51.333,64L51.333,48L56.187,48L56.667,42.667L51.333,42.667L51.333,40.445C51.333,39.171 51.589,38.667 52.821,38.667L56.667,38.667L56.667,32L50.256,32C45.461,32 43.333,34.112 43.333,38.155L43.333,42.667Z" fill="#FFFFFF"/>
</svg>
